<mxfile host="65bd71144e">
    <diagram id="7-J2zzYAVmp0Lr06Mmti" name="Page-1">
        <mxGraphModel dx="1875" dy="2107" grid="0" gridSize="10" guides="1" tooltips="1" connect="1" arrows="1" fold="1" page="1" pageScale="1" pageWidth="827" pageHeight="1169" math="0" shadow="0">
            <root>
                <mxCell id="0"/>
                <mxCell id="1" parent="0"/>
                <mxCell id="Hc805syuFAjdLnXU73JA-5" value="" style="edgeStyle=orthogonalEdgeStyle;rounded=0;orthogonalLoop=1;jettySize=auto;html=1;" parent="1" source="Hc805syuFAjdLnXU73JA-1" edge="1">
                    <mxGeometry relative="1" as="geometry">
                        <mxPoint x="-594" y="-712" as="targetPoint"/>
                    </mxGeometry>
                </mxCell>
                <mxCell id="Hc805syuFAjdLnXU73JA-1" value="시작" style="rounded=1;whiteSpace=wrap;html=1;" parent="1" vertex="1">
                    <mxGeometry x="-654" y="-812" width="120" height="60" as="geometry"/>
                </mxCell>
                <mxCell id="Hc805syuFAjdLnXU73JA-2" value="끝말 잇기" style="text;html=1;strokeColor=none;fillColor=none;align=center;verticalAlign=middle;whiteSpace=wrap;rounded=0;" parent="1" vertex="1">
                    <mxGeometry x="-632" y="-872" width="70" height="20" as="geometry"/>
                </mxCell>
                <mxCell id="Hc805syuFAjdLnXU73JA-18" value="" style="edgeStyle=orthogonalEdgeStyle;rounded=0;orthogonalLoop=1;jettySize=auto;html=1;" parent="1" source="Hc805syuFAjdLnXU73JA-16" target="Hc805syuFAjdLnXU73JA-17" edge="1">
                    <mxGeometry relative="1" as="geometry"/>
                </mxCell>
                <mxCell id="Hc805syuFAjdLnXU73JA-16" value="&lt;span&gt;인원수를 선택한다&lt;/span&gt;" style="ellipse;whiteSpace=wrap;html=1;" parent="1" vertex="1">
                    <mxGeometry x="-654" y="-712" width="120" height="70" as="geometry"/>
                </mxCell>
                <mxCell id="Hc805syuFAjdLnXU73JA-20" value="" style="edgeStyle=orthogonalEdgeStyle;rounded=0;orthogonalLoop=1;jettySize=auto;html=1;" parent="1" source="Hc805syuFAjdLnXU73JA-17" target="Hc805syuFAjdLnXU73JA-19" edge="1">
                    <mxGeometry relative="1" as="geometry"/>
                </mxCell>
                <mxCell id="Hc805syuFAjdLnXU73JA-17" value="&lt;span&gt;첫번째 사람이 단어를 말한다.&lt;/span&gt;" style="ellipse;whiteSpace=wrap;html=1;" parent="1" vertex="1">
                    <mxGeometry x="-654" y="-602" width="120" height="70" as="geometry"/>
                </mxCell>
                <mxCell id="Hc805syuFAjdLnXU73JA-22" value="" style="edgeStyle=orthogonalEdgeStyle;rounded=0;orthogonalLoop=1;jettySize=auto;html=1;" parent="1" source="Hc805syuFAjdLnXU73JA-19" target="Hc805syuFAjdLnXU73JA-21" edge="1">
                    <mxGeometry relative="1" as="geometry"/>
                </mxCell>
                <mxCell id="Hc805syuFAjdLnXU73JA-19" value="&lt;span&gt;그다음 사람이 단어를 말한다.&lt;/span&gt;" style="ellipse;whiteSpace=wrap;html=1;" parent="1" vertex="1">
                    <mxGeometry x="-654" y="-492" width="120" height="70" as="geometry"/>
                </mxCell>
                <mxCell id="Hc805syuFAjdLnXU73JA-23" style="edgeStyle=orthogonalEdgeStyle;rounded=0;orthogonalLoop=1;jettySize=auto;html=1;entryX=0;entryY=0.5;entryDx=0;entryDy=0;" parent="1" source="Hc805syuFAjdLnXU73JA-21" target="Hc805syuFAjdLnXU73JA-19" edge="1">
                    <mxGeometry relative="1" as="geometry">
                        <mxPoint x="-714" y="-472" as="targetPoint"/>
                        <Array as="points">
                            <mxPoint x="-754" y="-332"/>
                            <mxPoint x="-754" y="-457"/>
                        </Array>
                    </mxGeometry>
                </mxCell>
                <mxCell id="Hc805syuFAjdLnXU73JA-29" style="edgeStyle=orthogonalEdgeStyle;rounded=0;orthogonalLoop=1;jettySize=auto;html=1;entryX=0;entryY=0.5;entryDx=0;entryDy=0;" parent="1" source="Hc805syuFAjdLnXU73JA-21" target="Hc805syuFAjdLnXU73JA-28" edge="1">
                    <mxGeometry relative="1" as="geometry"/>
                </mxCell>
                <mxCell id="Hc805syuFAjdLnXU73JA-21" value="단어가 올바른가?" style="rhombus;whiteSpace=wrap;html=1;" parent="1" vertex="1">
                    <mxGeometry x="-644" y="-377.5" width="100" height="90" as="geometry"/>
                </mxCell>
                <mxCell id="Hc805syuFAjdLnXU73JA-24" value="Yes" style="text;html=1;strokeColor=none;fillColor=none;align=center;verticalAlign=middle;whiteSpace=wrap;rounded=0;" parent="1" vertex="1">
                    <mxGeometry x="-754" y="-402" width="40" height="20" as="geometry"/>
                </mxCell>
                <mxCell id="Hc805syuFAjdLnXU73JA-25" value="게임 끝" style="rounded=1;whiteSpace=wrap;html=1;" parent="1" vertex="1">
                    <mxGeometry x="-254" y="-362" width="120" height="60" as="geometry"/>
                </mxCell>
                <mxCell id="Hc805syuFAjdLnXU73JA-27" value="No" style="text;html=1;strokeColor=none;fillColor=none;align=center;verticalAlign=middle;whiteSpace=wrap;rounded=0;" parent="1" vertex="1">
                    <mxGeometry x="-534" y="-362" width="40" height="20" as="geometry"/>
                </mxCell>
                <mxCell id="Hc805syuFAjdLnXU73JA-30" style="edgeStyle=orthogonalEdgeStyle;rounded=0;orthogonalLoop=1;jettySize=auto;html=1;entryX=0;entryY=0.5;entryDx=0;entryDy=0;" parent="1" source="Hc805syuFAjdLnXU73JA-28" target="Hc805syuFAjdLnXU73JA-25" edge="1">
                    <mxGeometry relative="1" as="geometry"/>
                </mxCell>
                <mxCell id="Hc805syuFAjdLnXU73JA-28" value="틀렸다고 표시한다." style="ellipse;whiteSpace=wrap;html=1;" parent="1" vertex="1">
                    <mxGeometry x="-464" y="-367.5" width="120" height="70" as="geometry"/>
                </mxCell>
            </root>
        </mxGraphModel>
    </diagram>
</mxfile>